<svg width="219" height="48" viewBox="0 0 219 48" fill="none" xmlns="http://www.w3.org/2000/svg">
<g clip-path="url(#clip0_216_13)">
<path d="M73.8243 27.279L69.0974 15.8663L64.3706 27.279H73.8243ZM98.8235 33.7944C102.06 33.7944 103.678 32.5169 103.678 29.9618C103.678 27.4919 102.06 26.2569 98.8235 26.2569H91.2436V33.7944H98.8235ZM91.2436 21.4449H97.6738C99.1785 21.4449 100.314 21.1397 101.081 20.5293C101.847 19.9189 102.23 19.0175 102.23 17.8251C102.23 16.6611 101.84 15.7668 101.059 15.1423C100.279 14.5177 99.15 14.2054 97.6738 14.2054H91.2436V21.4449ZM122.538 25.0645C124.611 25.0645 126.187 24.6174 127.265 23.7231C128.344 22.8288 128.884 21.5584 128.883 19.9118C128.883 18.2368 128.344 16.9522 127.265 16.0579C126.187 15.1636 124.611 14.7165 122.538 14.7165H116.917V25.0645H122.538ZM151.301 33.5389C153.061 33.5389 154.651 33.1343 156.07 32.3252C157.49 31.5161 158.604 30.3876 159.413 28.9398C160.222 27.4919 160.627 25.8453 160.627 24C160.627 22.1547 160.222 20.5081 159.413 19.0602C158.604 17.6123 157.49 16.4838 156.07 15.6747C154.651 14.8656 153.061 14.461 151.301 14.461C149.541 14.461 147.951 14.8656 146.531 15.6747C145.112 16.4838 143.998 17.6123 143.189 19.0602C142.379 20.508 141.975 22.1546 141.975 24C141.975 25.8453 142.379 27.4919 143.188 28.9398C143.998 30.3876 145.112 31.5161 146.531 32.3253C147.951 33.1344 149.541 33.5389 151.301 33.5389L151.301 33.5389ZM179.586 25.0645C181.658 25.0645 183.234 24.6174 184.313 23.7231C185.391 22.8288 185.931 21.5584 185.931 19.9118C185.931 18.2368 185.391 16.9522 184.313 16.0579C183.234 15.1636 181.658 14.7165 179.586 14.7165H173.965V25.0645H179.586ZM206.404 27.2789L201.677 15.8663L196.95 27.279L206.404 27.2789ZM75.9962 32.5168H62.1562L59.516 38.9045H52.447L65.7333 9.09528H72.5468L84.3874 35.576V9.09528H98.2699C101.733 9.09528 104.43 9.76244 106.361 11.0968C108.291 12.4311 109.257 14.3332 109.257 16.8031C109.257 18.2794 108.888 19.5782 108.15 20.6996C107.411 21.821 106.375 22.7082 105.041 23.3613C106.858 23.9007 108.249 24.7808 109.214 26.0016C109.534 26.4061 109.805 26.848 110.019 27.3175V9.09549H122.922C125.562 9.09549 127.854 9.53549 129.799 10.4156C131.744 11.2956 133.241 12.5448 134.292 14.163C135.167 15.512 135.678 17.0683 135.824 18.8316C136.153 17.8794 136.58 16.9641 137.099 16.1007C138.504 13.7585 140.449 11.9202 142.933 10.5859C145.417 9.25161 148.206 8.58444 151.301 8.58445C154.395 8.58445 157.177 9.25163 159.647 10.5859C162.117 11.9202 164.062 13.7585 165.481 16.1007C166.179 17.2494 166.712 18.4901 167.066 19.7868V9.09549H179.969C182.609 9.09549 184.902 9.53549 186.846 10.4156C188.791 11.2956 190.289 12.5448 191.339 14.163C192.389 15.7811 192.915 17.6975 192.915 19.9119C192.915 20.409 192.887 20.9056 192.829 21.3992L198.313 9.09557H205.126L218.455 38.9048H211.216L208.575 32.5171H194.735L192.095 38.9048H185.026L190.383 26.8861C189.441 27.9229 188.262 28.7566 186.846 29.3871C184.902 30.253 182.609 30.6859 179.969 30.686H173.965V38.9048H167.066V28.2135C166.712 29.5102 166.179 30.7509 165.481 31.8996C164.062 34.2418 162.117 36.08 159.647 37.4143C157.177 38.7486 154.395 39.4158 151.301 39.4158C148.206 39.4158 145.417 38.7486 142.933 37.4143C140.449 36.08 138.504 34.2418 137.099 31.8996C135.747 29.6469 135.046 27.1249 134.994 24.3337C134.795 24.7867 134.56 25.2234 134.292 25.6396C133.241 27.2721 131.744 28.5212 129.799 29.3871C127.854 30.2529 125.562 30.6858 122.922 30.6857H116.917V38.9045H110.019V33.8073C109.521 34.9362 108.735 35.8971 107.66 36.6902C105.658 38.1664 102.798 38.9045 99.079 38.9045H78.6363L75.9962 32.5168Z" fill="#193D90"/>
<path fill-rule="evenodd" clip-rule="evenodd" d="M24 -3.8147e-06C37.255 -3.8147e-06 48.0001 10.7451 48.0001 23.9998C48.0001 37.2546 37.2549 47.9997 24 47.9997C10.7452 47.9997 0 37.2547 0 23.9999C0 10.7451 10.7452 3.87788e-05 24 3.87788e-05" fill="#193D90"/>
<path fill-rule="evenodd" clip-rule="evenodd" d="M15.6859 6.57119C13.0347 7.01575 10.6644 8.97226 9.97917 11.1806C9.04991 14.176 10.1553 17.2752 11.1699 19.7877C12.4842 23.0418 12.9128 24.2294 13.2914 28.1087C13.7665 32.9755 14.2263 36.2613 16.4022 40.53C16.9319 41.5691 17.7158 42.8279 18.761 43.3123C21.1167 44.4042 21.8779 41.0826 22.1365 38.5102C22.2952 36.9296 22.2701 35.381 22.2998 33.7961C22.3488 31.1844 22.5226 27.9002 23.3563 27.3493C25.3568 26.0274 26.0863 33.1372 26.2677 34.582C26.478 36.2585 26.997 42.4876 27.8595 43.288C28.3649 43.7572 29.2901 43.2532 29.759 42.9401C32.8871 40.8512 34.611 33.508 35.1303 30.0574C35.3605 28.528 35.3078 26.8924 35.5078 25.3142C36.1426 20.3037 38.9804 17.1921 38.2704 12.6084C37.817 9.6825 35.9756 7.76092 33.5258 6.95411C29.4282 5.60465 26.8092 7.44546 24.7669 7.71956C21.5207 8.15551 18.8865 6.03426 15.6858 6.57107" fill="white"/>
</g>
<defs>
<clipPath id="clip0_216_13">
<rect width="218.456" height="48" fill="white"/>
</clipPath>
</defs>
</svg>
